<svg width="406" height="406" viewBox="0 0 406 406" fill="none" xmlns="http://www.w3.org/2000/svg">
<path fill-rule="evenodd" clip-rule="evenodd" d="M397.022 145.545L386.896 118.538L267.322 163.37L361.395 77.0094L341.891 55.7629L245.38 144.361L299.601 25.0963L273.345 13.16L221.377 127.469L228.056 2.07898L199.255 0.545025L192.188 133.223L145.544 8.81371L118.538 18.939L165.182 143.348L72.631 48.0195L51.9373 68.1101L139.405 158.202L25.0962 106.235L13.1607 132.49L132.424 186.711L1.45448 183.401L0.726809 212.233L128.388 215.46L8.81372 260.291L18.939 287.297L138.513 242.466L44.4404 328.826L63.9436 350.072L160.455 261.476L106.235 380.739L132.49 392.675L184.458 278.365L177.78 403.757L206.58 405.289L213.647 272.614L260.291 397.022L287.297 386.896L240.653 262.486L333.204 357.815L353.898 337.725L266.429 247.632L380.739 299.6L392.676 273.345L273.412 219.125L404.38 222.434L405.109 193.602L277.447 190.376L397.022 145.545Z" fill="url(#paint0_linear_56_200)"/>
<defs>
<linearGradient id="paint0_linear_56_200" x1="391.959" y1="132.041" x2="-70.3767" y2="271.933" gradientUnits="userSpaceOnUse">
<stop stop-color="#0147FF"/>
<stop offset="1" stop-color="#0147FF" stop-opacity="0"/>
</linearGradient>
</defs>
</svg>
