<svg width="29" height="26" viewBox="0 0 29 26" fill="none" xmlns="http://www.w3.org/2000/svg">
<path d="M1.19209e-07 1.15H6.5V26H1.19209e-07V1.15ZM18.05 0.599999C19.5833 0.599999 21 0.799999 22.3 1.2C23.6 1.6 24.7333 2.21667 25.7 3.05C26.6667 3.88333 27.4167 4.95 27.95 6.25C28.4833 7.51667 28.75 9.03333 28.75 10.8V26H22.25V11.95C22.25 9.85 21.7333 8.31667 20.7 7.35C19.7 6.35 18.05 5.85 15.75 5.85C14.0167 5.85 12.45 6.18333 11.05 6.85C9.65 7.51667 8.51667 8.36667 7.65 9.4C6.78333 10.4 6.28333 11.45 6.15 12.55L6.1 10C6.26667 8.83333 6.65 7.7 7.25 6.6C7.85 5.5 8.65 4.5 9.65 3.6C10.6833 2.66667 11.9 1.93333 13.3 1.4C14.7 0.866666 16.2833 0.599999 18.05 0.599999Z" fill="white"/>
</svg>
